<svg xmlns="http://www.w3.org/2000/svg" enable-background="new 0 0 512 512" viewBox="0 0 512 512"><linearGradient id="a" x1="57.746" x2="447.704" y1="530.721" y2="140.763" gradientUnits="userSpaceOnUse"><stop offset="0" stop-color="#fcc60e"/><stop offset="1" stop-color="#e92e29"/></linearGradient><path fill="url(#a)" d="M27.805,256c0-100.528,67.797-188.658,164.869-214.316c4.272-1.128,8.649,1.418,9.779,5.69
	c1.129,4.271-1.418,8.649-5.69,9.778C106.704,80.957,43.805,162.726,43.805,256c0,61.491,27.199,119.269,74.623,158.518
	c3.404,2.817,3.879,7.86,1.063,11.264c-1.582,1.911-3.866,2.899-6.167,2.899c-1.797,0-3.604-0.602-5.096-1.837
	C57.118,384.545,27.805,322.275,27.805,256z M471.126,256c0-58.449-22.551-113.604-63.499-155.301
	c-36.769-37.441-84.64-60.248-136.295-65.286l27.03-21.107c3.482-2.72,4.101-7.747,1.381-11.229
	c-2.72-3.482-7.748-4.102-11.229-1.382l-43.973,34.339c-1.941,1.517-3.076,3.843-3.076,6.306s1.135,4.789,3.076,6.305l43.973,34.34
	c1.462,1.143,3.196,1.695,4.918,1.695c2.378,0,4.733-1.057,6.311-3.076c2.719-3.482,2.101-8.51-1.381-11.229L274.707,51.9
	C375.953,64.486,455.126,151.925,455.126,256c0,113.402-92.259,205.661-205.661,205.661H8c-4.418,0-8,3.582-8,8s3.582,8,8,8h241.466
	c59.208,0,114.871-23.057,156.737-64.923C448.07,370.872,471.126,315.208,471.126,256z M508.924,463.356l-43.973-34.34
	c-3.482-2.721-8.509-2.103-11.229,1.381c-2.719,3.482-2.101,8.51,1.381,11.229l25.655,20.035h-87.877c-4.418,0-8,3.582-8,8
	s3.582,8,8,8h87.876l-25.654,20.033c-3.482,2.72-4.101,7.747-1.381,11.229c1.578,2.021,3.932,3.076,6.311,3.076
	c1.722,0,3.457-0.553,4.918-1.694l43.973-34.339c1.941-1.517,3.076-3.843,3.076-6.306S510.865,464.872,508.924,463.356z
	 M192.469,291.425h-18.003c-4.418,0-8,3.582-8,8s3.582,8,8,8h18.003c15.131,0,27.982-8.083,38.195-24.025l8.039-12.549l8.039,12.549
	c10.212,15.942,23.063,24.025,38.195,24.025h20.214l-8.736,8.735c-3.124,3.125-3.124,8.189,0,11.314
	c1.562,1.562,3.609,2.343,5.657,2.343s4.095-0.781,5.657-2.343l22.393-22.393c3.124-3.125,3.124-8.189,0-11.314l-22.393-22.393
	c-3.124-3.123-8.189-3.123-11.313,0c-3.124,3.125-3.124,8.189,0,11.314l8.736,8.735h-20.214c-9.456,0-17.543-5.448-24.723-16.656
	l-12.011-18.749l12.011-18.749c7.18-11.208,15.267-16.656,24.723-16.656h20.214l-8.736,8.735c-3.124,3.125-3.124,8.189,0,11.314
	c1.562,1.562,3.609,2.343,5.657,2.343s4.095-0.781,5.657-2.343l22.393-22.393c3.124-3.125,3.124-8.189,0-11.314l-22.393-22.393
	c-3.124-3.123-8.189-3.123-11.313,0c-3.124,3.125-3.124,8.189,0,11.314l8.736,8.735h-20.214c-15.132,0-27.983,8.083-38.195,24.025
	l-8.039,12.549l-8.039-12.549c-10.213-15.942-23.064-24.025-38.195-24.025h-18.003c-4.418,0-8,3.582-8,8s3.582,8,8,8h18.003
	c9.456,0,17.542,5.448,24.723,16.656l12.011,18.749l-12.011,18.749C210.011,285.977,201.924,291.425,192.469,291.425z
	 M249.467,113.021c78.851,0,143,64.15,143,143.001s-64.15,143-143,143c-78.851,0-143.001-64.149-143.001-143
	S170.616,113.021,249.467,113.021z M122.466,256.021c0,70.028,56.972,127,127.001,127c70.028,0,127-56.972,127-127
	s-56.972-127.001-127-127.001C179.438,129.021,122.466,185.993,122.466,256.021z"/></svg>