<svg xmlns="http://www.w3.org/2000/svg" enable-background="new 0 0 48 48" viewBox="0 0 48 48"><path d="M26.2,16H25v3.1h1.3c0.8,0,1.5-0.7,1.5-1.5C27.8,16.7,27.1,16,26.2,16z M26.2,16H25v3.1h1.3c0.8,0,1.5-0.7,1.5-1.5   C27.8,16.7,27.1,16,26.2,16z M5.5,8.5v23h37v-23H5.5z M21,26.1h-2v-3.7h-2.8v3.7h-2v-8.7c0-1.9,1.5-3.4,3.4-3.4s3.4,1.5,3.4,3.4   V26.1z M26.2,21.1H25v5h-2V14h3.3c1.9,0,3.5,1.6,3.5,3.6C29.8,19.5,28.2,21.1,26.2,21.1z M33.8,26.1h-2v-12h2V26.1z M26.2,16H25   v3.1h1.3c0.8,0,1.5-0.7,1.5-1.5C27.8,16.7,27.1,16,26.2,16z M17.6,16c-0.8,0-1.4,0.6-1.4,1.4v3H19v-3C19,16.6,18.3,16,17.6,16z" fill="#a03232" class="color000 svgShape"/><polygon points="45.7 39.5 2.3 39.5 0 33.6 48 33.6" fill="#a03232" class="color000 svgShape"/></svg>